<svg width="78" height="64" viewBox="0 0 78 64" fill="none" xmlns="http://www.w3.org/2000/svg">
<path d="M78 7.7933C75.0792 9.09374 71.9811 9.94735 68.8088 10.3257C72.1131 8.33531 74.6503 5.18338 75.8449 1.4279C72.7038 3.30131 69.2671 4.62125 65.6833 5.33068C62.7641 2.20509 58.6054 0.251709 54.0025 0.251709C45.1647 0.251709 37.9994 7.45278 37.9994 16.3344C37.9994 17.5951 38.1411 18.8224 38.4138 19.9998C25.1142 19.3289 13.3228 12.9262 5.42984 3.19571C4.05265 5.57106 3.26351 8.33408 3.26351 11.2811C3.26351 16.8611 6.08888 21.7836 10.3825 24.6679C7.84128 24.5879 5.35595 23.8981 3.13402 22.656C3.1331 22.7234 3.1331 22.7907 3.1331 22.8584C3.1331 30.6508 8.64916 37.1512 15.9696 38.6287C13.6131 39.2728 11.1413 39.3671 8.74301 38.9043C10.7792 45.2939 16.6893 49.9436 23.6916 50.0737C18.2148 54.3871 11.3146 56.9585 3.81743 56.9585C2.52555 56.9585 1.25196 56.8822 0 56.7337C7.08185 61.297 15.4934 63.9596 24.5304 63.9596C53.9653 63.9596 70.0611 39.4525 70.0611 18.1996C70.0611 17.502 70.0458 16.8084 70.0148 16.1188C73.1476 13.8426 75.8517 11.0234 78 7.7933Z" fill="#1DA1F2"/>
</svg>
